<?xml version="1.0" encoding="utf-8"?>
<!-- Generator: Adobe Illustrator 16.0.0, SVG Export Plug-In . SVG Version: 6.00 Build 0)  -->
<!DOCTYPE svg PUBLIC "-//W3C//DTD SVG 1.1//EN" "http://www.w3.org/Graphics/SVG/1.1/DTD/svg11.dtd">
<svg version="1.1" id="Calque_1" xmlns="http://www.w3.org/2000/svg" xmlns:xlink="http://www.w3.org/1999/xlink" x="0px" y="0px"
	 width="320px" height="320px" viewBox="0 0 320 320" enable-background="new 0 0 320 320" xml:space="preserve">
<g display="none">
	<g display="inline">
		<path fill="#D4252D" d="M54,60c55.14,0,100,44.86,100,100c0,55.141-44.859,100-100,100C-1.14,260-46,215.141-46,160
			C-46,104.86-1.14,60,54,60 M54,48C-7.856,48-58,98.144-58,160c0,61.857,50.144,112,112,112c61.855,0,112-50.143,112-112
			C166,98.144,115.856,48,54,48L54,48z"/>
	</g>
	<g display="inline">
		<path fill="#D4252D" d="M266,60c55.141,0,100,44.86,100,100c0,55.141-44.859,100-100,100s-100-44.859-100-100
			C166,104.86,210.859,60,266,60 M266,48c-61.857,0-112,50.144-112,112c0,61.857,50.143,112,112,112c61.856,0,112-50.143,112-112
			C378,98.144,327.856,48,266,48L266,48z"/>
	</g>
	<g display="inline">
		<path fill="#D4252D" d="M160-46c55.141,0,100,44.86,100,100c0,55.14-44.859,100-100,100c-55.14,0-100-44.859-100-100
			C60-1.14,104.86-46,160-46 M160-58C98.144-58,48-7.856,48,54c0,61.855,50.144,112,112,112c61.857,0,112-50.144,112-112
			C272-7.856,221.857-58,160-58L160-58z"/>
	</g>
	<g display="inline">
		<path fill="#D4252D" d="M160,166c55.141,0,100,44.859,100,100s-44.859,100-100,100c-55.14,0-100-44.859-100-100
			S104.86,166,160,166 M160,154c-61.856,0-112,50.143-112,112c0,61.856,50.144,112,112,112c61.857,0,112-50.144,112-112
			C272,204.143,221.857,154,160,154L160,154z"/>
	</g>
</g>
<g display="none">
	<g display="inline">
		<path fill="#222C76" d="M54,83.5c42.182,0,76.5,34.318,76.5,76.5c0,42.183-34.317,76.5-76.5,76.5c-42.183,0-76.5-34.317-76.5-76.5
			C-22.5,117.818,11.818,83.5,54,83.5 M54,71.5c-48.877,0-88.5,39.623-88.5,88.5c0,48.876,39.624,88.5,88.5,88.5
			c48.876,0,88.5-39.624,88.5-88.5C142.5,111.123,102.876,71.5,54,71.5L54,71.5z"/>
	</g>
	<g display="inline">
		<path fill="#222C76" d="M266,84c41.906,0,76,34.093,76,76c0,41.906-34.094,76-76,76s-76-34.094-76-76
			C190,118.093,224.094,84,266,84 M266,72c-48.6,0-88,39.399-88,88c0,48.6,39.4,88,88,88c48.599,0,88-39.4,88-88
			C354,111.399,314.599,72,266,72L266,72z"/>
	</g>
	<g display="inline">
		<path fill="#222C76" d="M160-22c41.906,0,76,34.094,76,76c0,41.906-34.094,76-76,76c-41.907,0-76-34.093-76-76
			C84,12.094,118.093-22,160-22 M160-34c-48.601,0-88,39.4-88,88c0,48.6,39.399,88,88,88c48.6,0,88-39.4,88-88
			C248,5.4,208.6-34,160-34L160-34z"/>
	</g>
	<g display="inline">
		<path fill="#222C76" d="M160,190c41.906,0,76,34.094,76,76s-34.094,76-76,76c-41.907,0-76-34.094-76-76S118.093,190,160,190
			 M160,178c-48.601,0-88,39.4-88,88c0,48.599,39.399,88,88,88c48.6,0,88-39.401,88-88C248,217.4,208.6,178,160,178L160,178z"/>
	</g>
</g>
<path display="none" fill="#D4252D" d="M196.25,160c-9.514-3.252-19.603-5.259-30.076-5.828c0.008-0.124,0.017-0.246,0.023-0.37
	c3.087-50.213,43.392-90.519,93.605-93.604C261.854,60.072,263.918,60,266,60c1.957,0,3.898,0.063,5.828,0.174
	C271.939,58.13,272,56.072,272,54c0-1.962-0.052-3.912-0.151-5.849C269.912,48.052,267.962,48,266,48
	c-2.072,0-4.13,0.061-6.174,0.172C213.358,50.697,174.43,81.542,160,123.75c-3.252,9.513-5.259,19.603-5.828,30.075
	c-0.124-0.007-0.246-0.016-0.37-0.023c-50.213-3.086-90.519-43.391-93.604-93.604C60.072,58.147,60,56.082,60,54
	c0-1.957,0.063-3.899,0.174-5.829C58.13,48.061,56.072,48,54,48c-1.962,0-3.912,0.052-5.849,0.151C48.052,50.088,48,52.039,48,54
	c0,2.072,0.061,4.129,0.172,6.174c2.525,46.466,33.371,85.395,75.579,99.826c9.513,3.252,19.603,5.259,30.075,5.828
	c-0.007,0.123-0.016,0.246-0.023,0.369c-3.086,50.214-43.391,90.52-93.604,93.605C58.147,259.929,56.082,260,54,260
	c-1.957,0-3.899-0.062-5.829-0.174C48.061,261.87,48,263.928,48,266c0,1.962,0.052,3.912,0.151,5.849
	C50.088,271.948,52.039,272,54,272c2.072,0,4.129-0.061,6.174-0.172c46.466-2.524,85.395-33.37,99.826-75.578
	c3.252-9.514,5.259-19.603,5.828-30.076c0.123,0.008,0.246,0.017,0.369,0.023c50.214,3.087,90.519,43.392,93.605,93.605
	c0.126,2.051,0.197,4.115,0.197,6.197c0,1.957-0.062,3.898-0.174,5.828C261.87,271.939,263.928,272,266,272
	c1.962,0,3.912-0.052,5.849-0.151c0.1-1.937,0.151-3.887,0.151-5.849c0-2.072-0.061-4.13-0.172-6.174
	C269.304,213.358,238.458,174.43,196.25,160z"/>
<g display="none">
	<path display="inline" fill="#222C76" d="M142.381,164.615c-4.055-0.641-8.035-1.504-11.933-2.567
		c-0.209,7.887-1.614,15.477-4.045,22.6c4.42-1.827,9.02-3.31,13.768-4.403C141.354,175.187,142.106,169.964,142.381,164.615z"/>
	<path display="inline" fill="#222C76" d="M178.115,155.467c4.056,0.66,8.035,1.544,11.934,2.627
		c0.199-8.033,1.646-15.758,4.161-22.992c-4.437,1.874-9.061,3.39-13.834,4.522C179.161,144.747,178.391,150.041,178.115,155.467z"
		/>
	<path display="inline" fill="#222C76" d="M155.467,141.885c0.66-4.056,1.544-8.036,2.627-11.934
		c-7.802-0.194-15.312-1.565-22.365-3.949c1.839,4.416,3.332,9.011,4.441,13.754C145.123,140.896,150.234,141.62,155.467,141.885z"
		/>
	<path display="inline" fill="#222C76" d="M135.729,126.002c-6.738-2.277-13.056-5.466-18.803-9.434
		c3.976,5.743,7.178,12.054,9.476,18.784c4.42,1.828,9.02,3.31,13.768,4.404C139.061,135.013,137.568,130.418,135.729,126.002z"/>
	<path display="inline" fill="#222C76" d="M180.376,139.624c4.773-1.132,9.397-2.648,13.834-4.522
		c2.433-6.992,5.856-13.519,10.106-19.418c-5.899,4.25-12.426,7.674-19.418,10.106C183.024,130.227,181.508,134.851,180.376,139.624
		z"/>
	<path display="inline" fill="#222C76" d="M164.533,178.115c-0.66,4.056-1.545,8.035-2.627,11.934
		c8.033,0.199,15.758,1.646,22.992,4.161c-1.874-4.437-3.391-9.061-4.522-13.834C175.253,179.161,169.959,178.391,164.533,178.115z"
		/>
	<path display="inline" fill="#222C76" d="M126.403,184.647c-2.298,6.73-5.5,13.041-9.476,18.784
		c5.747-3.969,12.065-7.156,18.802-9.435c1.839-4.415,3.332-9.01,4.442-13.753C135.422,181.338,130.823,182.82,126.403,184.647z"/>
	<path display="inline" fill="#222C76" d="M184.898,194.21c6.992,2.433,13.52,5.856,19.419,10.107
		c-4.251-5.899-7.675-12.427-10.107-19.419c-4.437-1.874-9.061-3.391-13.834-4.522C181.508,185.149,183.024,189.773,184.898,194.21z
		"/>
</g>
<g display="none">
	<g display="inline">
		<path fill="#121212" d="M54,72c48.523,0,88,39.477,88,88s-39.477,88-88,88c-48.523,0-88-39.477-88-88S5.477,72,54,72 M54,60
			C-1.228,60-46,104.771-46,160S-1.228,260,54,260c55.228,0,100-44.771,100-100S109.228,60,54,60L54,60z"/>
	</g>
	<g display="inline">
		<path fill="#121212" d="M266,72c48.523,0,88,39.477,88,88s-39.477,88-88,88s-88-39.477-88-88S217.477,72,266,72 M266,60
			c-55.229,0-100,44.771-100,100s44.771,100,100,100c55.228,0,100-44.771,100-100S321.228,60,266,60L266,60z"/>
	</g>
	<g display="inline">
		<path fill="#121212" d="M160-34c48.523,0,88,39.477,88,88c0,48.523-39.477,88-88,88s-88-39.477-88-88C72,5.477,111.477-34,160-34
			 M160-46C104.771-46,60-1.228,60,54c0,55.228,44.771,100,100,100s100-44.772,100-100C260-1.228,215.229-46,160-46L160-46z"/>
	</g>
	<g display="inline">
		<path fill="#121212" d="M160,178c48.523,0,88,39.477,88,88s-39.477,88-88,88s-88-39.477-88-88S111.477,178,160,178 M160,166
			c-55.229,0-100,44.771-100,100c0,55.228,44.771,100,100,100s100-44.772,100-100C260,210.771,215.229,166,160,166L160,166z"/>
	</g>
</g>
<path display="none" fill="#D4252D" d="M196.25,160c-9.514-3.252-19.603-5.259-30.076-5.828c0.008-0.124,0.017-0.246,0.023-0.37
	c3.087-50.213,43.392-90.519,93.605-93.604c-1.051,17.095-6.423,33.037-15.023,46.757c2.408,3.842,4.567,7.855,6.445,12.024
	c11.957-16.757,19.415-36.946,20.604-58.805C271.939,58.13,272,56.072,272,54c0-1.962-0.052-3.912-0.151-5.849
	C269.912,48.052,267.962,48,266,48c-2.072,0-4.13,0.061-6.174,0.172C213.358,50.697,174.43,81.542,160,123.75
	c-3.252,9.513-5.259,19.603-5.828,30.075c-0.124-0.007-0.246-0.016-0.37-0.023c-50.213-3.086-90.519-43.391-93.604-93.604
	c17.095,1.051,33.036,6.423,46.757,15.024c3.842-2.409,7.856-4.569,12.025-6.446C102.223,56.818,82.034,49.36,60.174,48.172l0,0
	C58.13,48.061,56.072,48,54,48c0,0,0,0,0,0l0,0c-1.962,0-3.912,0.052-5.849,0.151C48.052,50.088,48,52.039,48,54
	c0,2.072,0.061,4.129,0.172,6.174c2.525,46.466,33.371,85.395,75.579,99.826c9.513,3.252,19.603,5.259,30.075,5.828
	c-0.007,0.123-0.016,0.246-0.023,0.369c-3.086,50.214-43.391,90.52-93.604,93.605h0l0,0c1.051-17.096,6.423-33.036,15.024-46.757
	c-2.409-3.843-4.568-7.856-6.446-12.026c-11.957,16.758-19.416,36.946-20.603,58.807C48.061,261.87,48,263.928,48,266
	c0,1.962,0.052,3.912,0.151,5.849C50.088,271.948,52.038,272,54,272l0,0c0,0,0,0,0,0c2.072,0,4.129-0.061,6.174-0.172
	c46.466-2.524,85.395-33.37,99.826-75.578c3.252-9.514,5.259-19.603,5.828-30.076c0.123,0.008,0.246,0.017,0.369,0.023
	c50.214,3.087,90.519,43.392,93.605,93.605c-17.096-1.051-33.037-6.423-46.758-15.023c-3.842,2.408-7.855,4.568-12.024,6.445
	c16.757,11.958,36.946,19.416,58.806,20.604C261.87,271.939,263.928,272,266,272c1.962,0,3.912-0.052,5.849-0.151
	c0.1-1.937,0.151-3.887,0.151-5.849c0-2.072-0.061-4.13-0.172-6.174C269.304,213.358,238.458,174.43,196.25,160z"/>
<g display="none">
	<path display="inline" fill="#222C76" d="M141.759,164.615c-4.055-0.641-8.035-1.504-11.933-2.568
		c-0.209,7.887-1.614,15.477-4.045,22.6c4.42-1.826,9.02-3.309,13.768-4.402C140.732,175.186,141.484,169.963,141.759,164.615z"/>
	<path display="inline" fill="#222C76" d="M177.493,155.466c4.056,0.66,8.035,1.544,11.934,2.627
		c0.199-8.033,1.646-15.758,4.161-22.992c-4.437,1.874-9.061,3.39-13.834,4.522C178.539,144.746,177.769,150.041,177.493,155.466z"
		/>
	<path display="inline" fill="#222C76" d="M154.845,141.885c0.66-4.056,1.544-8.036,2.627-11.934
		c-7.802-0.194-15.312-1.565-22.365-3.949c1.839,4.416,3.332,9.011,4.441,13.754C144.501,140.896,149.612,141.619,154.845,141.885z"
		/>
	<path display="inline" fill="#222C76" d="M135.107,126.002c-6.738-2.277-13.056-5.466-18.803-9.434
		c3.976,5.743,7.178,12.054,9.476,18.784c4.42,1.828,9.02,3.31,13.768,4.404C138.439,135.013,136.946,130.417,135.107,126.002z"/>
	<path display="inline" fill="#222C76" d="M179.754,139.624c4.773-1.132,9.397-2.648,13.834-4.522
		c2.433-6.992,5.856-13.519,10.106-19.418c-5.899,4.25-12.426,7.674-19.418,10.106C182.402,130.226,180.886,134.85,179.754,139.624z
		"/>
	<path display="inline" fill="#222C76" d="M163.911,178.115c-0.66,4.055-1.545,8.035-2.627,11.934
		c8.033,0.199,15.758,1.645,22.992,4.16c-1.874-4.436-3.391-9.061-4.522-13.834C174.631,179.16,169.337,178.391,163.911,178.115z"/>
	<path display="inline" fill="#222C76" d="M125.781,184.646c-2.298,6.73-5.5,13.041-9.476,18.785
		c5.747-3.969,12.065-7.156,18.802-9.436c1.839-4.414,3.332-9.01,4.442-13.752C134.8,181.338,130.201,182.82,125.781,184.646z"/>
	<path display="inline" fill="#222C76" d="M184.276,194.209c6.992,2.434,13.52,5.857,19.419,10.107
		c-4.251-5.898-7.675-12.426-10.107-19.418c-4.437-1.875-9.061-3.391-13.834-4.523C180.886,185.148,182.402,189.773,184.276,194.209
		z"/>
</g>
<rect display="none" fill="#121212" width="320" height="320"/>
<path fill="#FFFFFF" d="M142.68,153.019c2.793,2.817,5.758,5.514,8.898,8.067c-0.078,0.094-0.157,0.189-0.236,0.285
	c-32.012,38.809-88.31,47.727-130.747,20.709l0-0.002c10.898-13.211,24.614-22.95,39.637-28.995
	c0.001-0.019,0.003-0.036,0.004-0.054c21.609-8.705,45.916-9.724,68.476-2.36c-3.411,3.513-7.105,6.639-11.025,9.366
	c-0.013,0.009-0.027,0.018-0.042,0.027c-26.96-6.239-55.842,0.544-77.228,18.877c26.004,10.826,55.568,8.354,79.281-5.912
	c0.016,0.004,0.032,0.01,0.049,0.014c4.124-2.488,8.069-5.338,11.79-8.533c3.215-2.764,6.253-5.796,9.101-9.075
	c0.003,0.001,0.005,0.001,0.008,0.003c0.644-0.742,1.278-1.494,1.902-2.261C142.591,153.122,142.637,153.073,142.68,153.019
	L142.68,153.019L142.68,153.019z M179.354,164.562c0.002,0.002,0.004,0.004,0.008,0.004c2.846-3.279,5.883-6.313,9.1-9.075
	c3.723-3.196,7.666-6.046,11.789-8.533c0.016,0.004,0.033,0.009,0.049,0.013c23.713-14.264,53.277-16.738,79.281-5.911
	c-21.385,18.333-50.268,25.116-77.227,18.876c-0.016,0.009-0.029,0.019-0.043,0.029c-3.92,2.726-7.613,5.851-11.023,9.365
	c22.561,7.363,46.867,6.344,68.475-2.359c0-0.018,0.004-0.035,0.006-0.053c15.021-6.045,28.738-15.785,39.637-28.998
	c-42.438-27.019-98.736-18.102-130.748,20.708c-0.078,0.096-0.156,0.19-0.236,0.286c3.141,2.553,6.105,5.25,8.898,8.067
	C177.984,166.158,178.664,165.355,179.354,164.562z M166.842,142.564c-0.771-0.628-1.531-1.269-2.279-1.918
	c0.002-0.002,0.004-0.005,0.004-0.007c-3.279-2.847-6.313-5.885-9.075-9.1c-3.196-3.721-6.046-7.667-8.534-11.79
	c0.004-0.017,0.008-0.033,0.014-0.049c-14.265-23.713-16.739-53.277-5.912-79.281c18.333,21.386,25.116,50.268,18.877,77.228
	c0.01,0.014,0.019,0.028,0.029,0.042c2.726,3.919,5.851,7.614,9.365,11.024c7.363-22.56,6.344-46.867-2.359-68.475
	c-0.018-0.001-0.037-0.003-0.055-0.004c-6.044-15.023-15.783-28.74-28.996-39.638c-27.018,42.438-18.101,98.736,20.708,130.747
	c0.096,0.079,0.189,0.157,0.286,0.236c2.553-3.141,5.25-6.105,8.064-8.899C166.934,142.642,166.891,142.602,166.842,142.564z
	 M161.371,168.656c-0.096-0.078-0.189-0.158-0.285-0.236c-2.554,3.141-5.25,6.105-8.067,8.9h0.001l0,0
	c0.007,0.006,0.013,0.012,0.021,0.016c0.816,0.66,1.611,1.334,2.396,2.018c-0.001,0.002-0.002,0.006-0.002,0.008
	c3.278,2.846,6.313,5.883,9.075,9.1c3.195,3.723,6.045,7.666,8.533,11.789c-0.004,0.018-0.01,0.033-0.014,0.049
	c14.266,23.713,16.738,53.277,5.912,79.281c-18.333-21.385-25.116-50.268-18.876-77.227c-0.01-0.016-0.019-0.027-0.028-0.043
	c-2.727-3.92-5.853-7.613-9.365-11.023c-7.364,22.559-6.346,46.867,2.359,68.475c0.018,0,0.036,0.004,0.053,0.004
	c6.045,15.023,15.784,28.74,28.997,39.639C209.098,256.967,200.18,200.668,161.371,168.656z M122.591,252.746
	c-0.017-0.006-0.032-0.014-0.049-0.021c-1.458-21.154,3.854-42.455,15.354-60.576c-4.1,14.725-5.081,30.008-3.102,44.885
	c-1.432,14.256,0.581,28.893,6.266,42.547c1.764-2.057,3.418-4.186,4.966-6.371c1.956,3.846,4.139,7.594,6.552,11.221
	c-4.282,5.402-9.158,10.438-14.657,14.975C128.722,284.955,123.698,268.902,122.591,252.746z M67.253,122.592
	c-16.156,1.107-32.209,6.13-46.658,15.328l0,0c4.523,5.483,9.544,10.347,14.928,14.62c3.6-2.404,7.335-4.597,11.196-6.563
	c-2.163-1.534-4.266-3.172-6.301-4.917c13.572-5.651,28.112-7.671,42.286-6.291c15.272-2.071,30.516-1.004,44.981,3.022
	c-18.085-11.429-39.322-16.704-60.413-15.25C67.267,122.558,67.26,122.574,67.253,122.592z M174.023,46.72
	c1.533-2.163,3.172-4.267,4.916-6.301c5.65,13.572,7.67,28.113,6.289,42.287c2.072,15.274,1.004,30.519-3.025,44.986
	c11.432-18.087,16.707-39.326,15.254-60.417c-0.018-0.006-0.033-0.014-0.049-0.021c-1.107-16.156-6.131-32.209-15.33-46.658
	c-5.482,4.523-10.346,9.544-14.619,14.93C169.861,39.125,172.055,42.86,174.023,46.72z M252.746,197.408
	c16.156-1.105,32.211-6.131,46.658-15.328c-4.523-5.484-9.545-10.348-14.93-14.621c-3.6,2.404-7.336,4.598-11.195,6.564
	c2.162,1.533,4.266,3.172,6.301,4.916c-13.57,5.65-28.111,7.67-42.285,6.289c-15.273,2.072-30.516,1.006-44.979-3.021
	c18.084,11.428,39.32,16.703,60.408,15.25C252.732,197.439,252.74,197.426,252.746,197.408z"/>
</svg>
